<mxfile host="65bd71144e">
    <diagram id="DZpjK2TgmXXLBPSDh2Nl" name="Page-1">
        <mxGraphModel dx="665" dy="514" grid="1" gridSize="10" guides="1" tooltips="1" connect="1" arrows="1" fold="1" page="1" pageScale="1" pageWidth="850" pageHeight="1100" math="0" shadow="0">
            <root>
                <mxCell id="0"/>
                <mxCell id="1" parent="0"/>
                <mxCell id="2" value="&lt;span&gt;Otthelo Application&lt;/span&gt;" style="rounded=0;whiteSpace=wrap;html=1;align=center;horizontal=1;verticalAlign=top;fontColor=default;labelBackgroundColor=none;fillColor=none;" vertex="1" parent="1">
                    <mxGeometry x="100" y="60" width="400" height="370" as="geometry"/>
                </mxCell>
                <mxCell id="3" value="Player" style="shape=umlActor;verticalLabelPosition=bottom;verticalAlign=top;html=1;" vertex="1" parent="1">
                    <mxGeometry x="10" y="150" width="30" height="60" as="geometry"/>
                </mxCell>
                <mxCell id="5" value="Compete" style="ellipse;whiteSpace=wrap;html=1;" vertex="1" parent="1">
                    <mxGeometry x="120" y="190" width="140" height="70" as="geometry"/>
                </mxCell>
                <mxCell id="6" value="" style="endArrow=none;html=1;" edge="1" parent="1" source="5">
                    <mxGeometry width="50" height="50" relative="1" as="geometry">
                        <mxPoint x="380" y="290" as="sourcePoint"/>
                        <mxPoint x="50" y="190" as="targetPoint"/>
                    </mxGeometry>
                </mxCell>
                <mxCell id="7" value="* start game&lt;div&gt;* check status&lt;/div&gt;&lt;div&gt;* check win/lose&lt;/div&gt;&lt;div&gt;&lt;br&gt;&lt;/div&gt;" style="shape=note;whiteSpace=wrap;html=1;backgroundOutline=1;darkOpacity=0.05;fillColor=#ffe6cc;strokeColor=#d79b00;align=left;" vertex="1" parent="1">
                    <mxGeometry x="330" y="90" width="130" height="70" as="geometry"/>
                </mxCell>
                <mxCell id="10" value="" style="endArrow=none;dashed=1;html=1;entryX=0;entryY=0.5;entryDx=0;entryDy=0;entryPerimeter=0;exitX=0.957;exitY=0.393;exitDx=0;exitDy=0;exitPerimeter=0;" edge="1" parent="1" source="5" target="7">
                    <mxGeometry width="50" height="50" relative="1" as="geometry">
                        <mxPoint x="250" y="200" as="sourcePoint"/>
                        <mxPoint x="300" y="150" as="targetPoint"/>
                    </mxGeometry>
                </mxCell>
                <mxCell id="11" value="Signup/Login" style="ellipse;whiteSpace=wrap;html=1;" vertex="1" parent="1">
                    <mxGeometry x="140" y="80" width="120" height="80" as="geometry"/>
                </mxCell>
                <mxCell id="14" value="Past Result" style="ellipse;whiteSpace=wrap;html=1;" vertex="1" parent="1">
                    <mxGeometry x="120" y="270" width="120" height="60" as="geometry"/>
                </mxCell>
                <mxCell id="15" value="" style="endArrow=none;html=1;exitX=0.03;exitY=0.669;exitDx=0;exitDy=0;exitPerimeter=0;" edge="1" parent="1" source="11">
                    <mxGeometry width="50" height="50" relative="1" as="geometry">
                        <mxPoint x="119.61" y="179" as="sourcePoint"/>
                        <mxPoint x="50" y="190" as="targetPoint"/>
                    </mxGeometry>
                </mxCell>
                <mxCell id="17" value="" style="endArrow=none;html=1;exitX=0.038;exitY=0.644;exitDx=0;exitDy=0;exitPerimeter=0;" edge="1" parent="1" source="14">
                    <mxGeometry width="50" height="50" relative="1" as="geometry">
                        <mxPoint x="380" y="290" as="sourcePoint"/>
                        <mxPoint x="50" y="190" as="targetPoint"/>
                    </mxGeometry>
                </mxCell>
                <mxCell id="20" value="Practice Alone" style="ellipse;whiteSpace=wrap;html=1;" vertex="1" parent="1">
                    <mxGeometry x="310" y="220" width="140" height="70" as="geometry"/>
                </mxCell>
                <mxCell id="21" value="Vs Computer" style="ellipse;whiteSpace=wrap;html=1;" vertex="1" parent="1">
                    <mxGeometry x="340" y="350" width="140" height="70" as="geometry"/>
                </mxCell>
                <mxCell id="22" value="Vs Other Player" style="ellipse;whiteSpace=wrap;html=1;" vertex="1" parent="1">
                    <mxGeometry x="330" y="450" width="140" height="70" as="geometry"/>
                </mxCell>
                <mxCell id="27" value="Extends" style="endArrow=block;endSize=16;endFill=0;html=1;entryX=1;entryY=0.5;entryDx=0;entryDy=0;exitX=0;exitY=0;exitDx=0;exitDy=0;" edge="1" parent="1" source="20" target="5">
                    <mxGeometry width="160" relative="1" as="geometry">
                        <mxPoint x="240" y="260" as="sourcePoint"/>
                        <mxPoint x="400" y="260" as="targetPoint"/>
                    </mxGeometry>
                </mxCell>
                <mxCell id="28" value="Extends" style="endArrow=block;endSize=16;endFill=0;html=1;entryX=0.94;entryY=0.693;entryDx=0;entryDy=0;entryPerimeter=0;exitX=0.033;exitY=0.679;exitDx=0;exitDy=0;exitPerimeter=0;" edge="1" parent="1" source="21" target="5">
                    <mxGeometry width="160" relative="1" as="geometry">
                        <mxPoint x="312" y="247" as="sourcePoint"/>
                        <mxPoint x="252" y="239" as="targetPoint"/>
                        <Array as="points">
                            <mxPoint x="280" y="280"/>
                        </Array>
                    </mxGeometry>
                </mxCell>
                <mxCell id="33" value="Extends" style="endArrow=block;endSize=16;endFill=0;html=1;exitX=0;exitY=0.5;exitDx=0;exitDy=0;entryX=0.754;entryY=0.964;entryDx=0;entryDy=0;entryPerimeter=0;" edge="1" parent="1" source="22" target="5">
                    <mxGeometry width="160" relative="1" as="geometry">
                        <mxPoint x="240" y="260" as="sourcePoint"/>
                        <mxPoint x="220.01999999999998" y="250.07999999999993" as="targetPoint"/>
                    </mxGeometry>
                </mxCell>
                <mxCell id="34" value="" style="rounded=1;whiteSpace=wrap;html=1;fillColor=none;strokeColor=#FF0000;strokeWidth=5;" vertex="1" parent="1">
                    <mxGeometry x="110" y="190" width="370" height="140" as="geometry"/>
                </mxCell>
            </root>
        </mxGraphModel>
    </diagram>
</mxfile>